<?xml version="1.0" encoding="utf-8"?>
<!-- Generator: Adobe Illustrator 26.3.1, SVG Export Plug-In . SVG Version: 6.00 Build 0)  -->
<svg version="1.1" id="Layer_1" xmlns="http://www.w3.org/2000/svg" xmlns:xlink="http://www.w3.org/1999/xlink" x="0px" y="0px"
	 viewBox="0 0 226.34 252.06" style="enable-background:new 0 0 226.34 252.06;" xml:space="preserve">
<style type="text/css">
	.st0{fill:#002856;}
	.st1{fill:#FFFFFF;}
	.st2{fill:#DAA900;}
</style>
<g>
	<polygon class="st0" points="215.88,172.79 170.52,153.12 170.52,74.96 130.34,154.4 97.55,154.4 55.82,74.34 55.82,153.12 
		10.46,172.79 10.46,10.46 70.23,10.46 113.16,85.57 155.89,10.46 215.88,10.46 	"/>
	<path class="st0" d="M215.88,0h-59.99h-6.08l-3.01,5.29l-33.66,59.16L79.31,5.27L76.3,0h-6.07H10.46H0v10.46v162.33v15.94
		l14.62-6.34l45.36-19.68l6.3-2.73v-6.86v-36.08l21.99,42.19l2.93,5.63h6.34h32.79h6.43l2.9-5.74l20.39-40.31v34.3v6.86l6.3,2.73
		l45.36,19.68l14.62,6.34v-15.94V10.46V0H215.88z M221.11,10.46v162.33v7.97l-7.31-3.17l-45.36-19.68l-3.15-1.37v-3.43V96.89
		L135,156.76l-1.45,2.87h-3.22H97.55h-3.17l-1.47-2.81L61.06,95.69v57.43v3.43l-3.15,1.37l-45.36,19.68l-7.31,3.17v-7.97V10.46V5.23
		h5.23h59.77h3.03l1.51,2.63l38.38,67.15l38.19-67.13l1.5-2.65h3.04h59.99h5.23V10.46z"/>
	<path class="st1" d="M215.88,5.23h-59.99h-3.04l-1.5,2.64l-38.19,67.14L74.77,7.86l-1.51-2.63h-3.04H10.46H5.23v5.23v162.33v7.97
		l7.31-3.17l45.36-19.67l3.15-1.37v-3.43V95.69l31.86,61.12l1.47,2.81h3.17h32.79h3.21l1.45-2.87l30.28-59.87v56.23v3.43l3.15,1.37
		l45.36,19.67l7.31,3.17v-7.97V10.46V5.23H215.88z M215.88,172.79l-45.36-19.68V74.96l-40.18,79.44H97.55L55.82,74.34v78.78
		l-45.36,19.68V10.46h59.77l42.93,75.11l42.73-75.11h59.99V172.79z"/>
	<polygon class="st2" points="113.16,85.57 155.89,10.46 215.88,10.46 215.88,172.79 170.52,153.12 170.52,74.96 130.34,154.4 
		113.17,154.4 	"/>
	<path class="st2" d="M8.16,199.48v40.05c0,3.71,1.63,5.04,4.23,5.04s4.23-1.33,4.23-5.04v-40.05h7.71v39.53
		c0,8.31-4.15,13.05-12.17,13.05S0,247.32,0,239.01v-39.53H8.16z"/>
	<path class="st2" d="M52.06,232.04v6.9c0,8.31-4.15,13.06-12.16,13.06c-8.01,0-12.17-4.75-12.17-13.06v-27
		c0-8.31,4.15-13.05,12.17-13.05c8.01,0,12.16,4.75,12.16,13.05v5.04h-7.71v-5.56c0-3.71-1.63-5.12-4.23-5.12
		c-2.6,0-4.23,1.41-4.23,5.12v28.04c0,3.71,1.63,5.04,4.23,5.04c2.6,0,4.23-1.34,4.23-5.04v-7.42H52.06z"/>
	<polygon class="st0" points="72.83,236.34 78.39,199.48 89.74,199.48 89.74,251.4 82.03,251.4 82.03,214.16 76.39,251.4 
		68.67,251.4 62.59,214.68 62.59,251.4 55.47,251.4 55.47,199.48 66.82,199.48 	"/>
	<polygon class="st0" points="102.34,221.36 113.54,221.36 113.54,228.77 102.34,228.77 102.34,243.98 116.44,243.98 116.44,251.4 
		94.18,251.4 94.18,199.48 116.44,199.48 116.44,206.89 102.34,206.89 	"/>
	<path class="st0" d="M137.05,251.4c-0.44-1.34-0.74-2.15-0.74-6.38v-8.16c0-4.82-1.63-6.6-5.34-6.6h-2.82v21.14h-8.16v-51.92h12.31
		c8.46,0,12.09,3.93,12.09,11.94v4.08c0,5.34-1.71,8.83-5.34,10.53c4.08,1.71,5.42,5.64,5.42,11.05v8.01c0,2.52,0.07,4.38,0.89,6.3
		H137.05z M128.15,206.89v15.95h3.19c3.04,0,4.9-1.33,4.9-5.49v-5.12c0-3.71-1.26-5.34-4.15-5.34H128.15z"/>
	<path class="st0" d="M171.98,232.04v6.9c0,8.31-4.15,13.06-12.16,13.06s-12.17-4.75-12.17-13.06v-27c0-8.31,4.15-13.05,12.17-13.05
		s12.16,4.75,12.16,13.05v5.04h-7.71v-5.56c0-3.71-1.63-5.12-4.23-5.12c-2.6,0-4.23,1.41-4.23,5.12v28.04
		c0,3.71,1.63,5.04,4.23,5.04c2.6,0,4.23-1.34,4.23-5.04v-7.42H171.98z"/>
	<polygon class="st0" points="183.62,221.36 194.82,221.36 194.82,228.77 183.62,228.77 183.62,243.98 197.72,243.98 197.72,251.4 
		175.46,251.4 175.46,199.48 197.72,199.48 197.72,206.89 183.62,206.89 	"/>
	<path class="st0" d="M201.27,199.48h12.91c8.16,0,12.16,4.53,12.16,12.83v26.26c0,8.31-4.01,12.83-12.16,12.83h-12.91V199.48z
		 M209.43,206.89v37.09h4.6c2.6,0,4.15-1.34,4.15-5.04v-27c0-3.71-1.56-5.04-4.15-5.04H209.43z"/>
</g>
</svg>
