<?xml version="1.0" encoding="UTF-8" standalone="no"?>
<!-- Generator: Adobe Illustrator 26.3.1, SVG Export Plug-In . SVG Version: 6.00 Build 0)  -->

<svg
   version="1.1"
   id="Layer_1"
   x="0px"
   y="0px"
   viewBox="0 0 226 189"
   xml:space="preserve"
   sodipodi:docname="UCM_Logo.svg"
   inkscape:version="1.4 (e7c3feb1, 2024-10-09)"
   inkscape:export-filename="UCM_Logo2.svg"
   inkscape:export-xdpi="96"
   inkscape:export-ydpi="96"
   width="226"
   height="189"
   xmlns:inkscape="http://www.inkscape.org/namespaces/inkscape"
   xmlns:sodipodi="http://sodipodi.sourceforge.net/DTD/sodipodi-0.dtd"
   xmlns="http://www.w3.org/2000/svg"
   xmlns:svg="http://www.w3.org/2000/svg"><defs
   id="defs7" /><sodipodi:namedview
   id="namedview7"
   pagecolor="#ffffff"
   bordercolor="#000000"
   borderopacity="0.25"
   inkscape:showpageshadow="2"
   inkscape:pageopacity="0.0"
   inkscape:pagecheckerboard="0"
   inkscape:deskcolor="#d1d1d1"
   inkscape:zoom="1.2397596"
   inkscape:cx="64.125336"
   inkscape:cy="196.40905"
   inkscape:window-width="1792"
   inkscape:window-height="1092"
   inkscape:window-x="0"
   inkscape:window-y="28"
   inkscape:window-maximized="0"
   inkscape:current-layer="Layer_1" />
<style
   type="text/css"
   id="style1">
	.st0{fill:#002856;}
	.st1{fill:#FFFFFF;}
	.st2{fill:#DAA900;}
</style>
<g
   id="g7"
   inkscape:export-filename="g7.svg"
   inkscape:export-xdpi="96"
   inkscape:export-ydpi="96"
   transform="translate(0.80660799,0.80660846)">
	<polygon
   class="st0"
   points="155.89,10.46 215.88,10.46 215.88,172.79 170.52,153.12 170.52,74.96 130.34,154.4 97.55,154.4 55.82,74.34 55.82,153.12 10.46,172.79 10.46,10.46 70.23,10.46 113.16,85.57 "
   id="polygon1" />
	<path
   class="st0"
   d="m 215.88,0 h -59.99 -6.08 L 146.8,5.29 113.14,64.45 79.31,5.27 76.3,0 H 70.23 10.46 0 v 10.46 162.33 15.94 l 14.62,-6.34 45.36,-19.68 6.3,-2.73 v -6.86 -36.08 l 21.99,42.19 2.93,5.63 h 6.34 32.79 6.43 l 2.9,-5.74 20.39,-40.31 v 34.3 6.86 l 6.3,2.73 45.36,19.68 14.62,6.34 V 172.78 10.46 0 Z m 5.23,10.46 v 162.33 7.97 l -7.31,-3.17 -45.36,-19.68 -3.15,-1.37 v -3.43 -56.22 l -30.29,59.87 -1.45,2.87 H 130.33 97.55 94.38 L 92.91,156.82 61.06,95.69 v 57.43 3.43 l -3.15,1.37 -45.36,19.68 -7.31,3.17 V 172.8 10.46 5.23 h 5.23 59.77 3.03 l 1.51,2.63 38.38,67.15 38.19,-67.13 1.5,-2.65 h 3.04 59.99 5.23 z"
   id="path1" />
	<path
   class="st1"
   d="m 215.88,5.23 h -59.99 -3.04 L 151.35,7.87 113.16,75.01 74.77,7.86 73.26,5.23 H 70.22 10.46 5.23 v 5.23 162.33 7.97 l 7.31,-3.17 45.36,-19.67 3.15,-1.37 v -3.43 -57.43 l 31.86,61.12 1.47,2.81 h 3.17 32.79 3.21 l 1.45,-2.87 30.28,-59.87 v 56.23 3.43 l 3.15,1.37 45.36,19.67 7.31,3.17 V 172.78 10.46 5.23 Z m 0,167.56 -45.36,-19.68 V 74.96 L 130.34,154.4 H 97.55 L 55.82,74.34 v 78.78 L 10.46,172.8 V 10.46 h 59.77 l 42.93,75.11 42.73,-75.11 h 59.99 z"
   id="path2" />
	<polygon
   class="st2"
   points="215.88,172.79 170.52,153.12 170.52,74.96 130.34,154.4 113.17,154.4 113.16,85.57 155.89,10.46 215.88,10.46 "
   id="polygon2" />
	
	
	
	
	
	
	
	
</g>
</svg>
